Coordinates
version=1
nRows=11
nColumns=63
inDegrees=yes

Units are S.I. units (second, meters, Newtons, ...)
If the header above contains a line with 'inDegrees', this indicates whether rotational values are in degrees (yes) or radians (no).

endheader
time	pelvis_tilt	pelvis_list	pelvis_rotation	pelvis_tx	pelvis_ty	pelvis_tz	hip_flexion_r	hip_adduction_r	hip_rotation_r	knee_angle_r	knee_angle_r_beta	ankle_angle_r	subtalar_angle_r	mtp_angle_r	hip_flexion_l	hip_adduction_l	hip_rotation_l	knee_angle_l	knee_angle_l_beta	ankle_angle_l	subtalar_angle_l	mtp_angle_l	L5_S1_Flex_Ext	L5_S1_Lat_Bending	L5_S1_axial_rotation	L4_L5_Flex_Ext	L4_L5_Lat_Bending	L4_L5_axial_rotation	L3_L4_Flex_Ext	L3_L4_Lat_Bending	L3_L4_axial_rotation	L2_L3_Flex_Ext	L2_L3_Lat_Bending	L2_L3_axial_rotation	L1_L2_Flex_Ext	L1_L2_Lat_Bending	L1_L2_axial_rotation	L1_T12_Flex_Ext	L1_T12_Lat_Bending	L1_T12_axial_rotation	Abs_r3	Abs_r2	Abs_r1	Abs_t1	Abs_t2	neck_flexion	neck_bending	neck_rotation	arm_flex_r	arm_add_r	arm_rot_r	elbow_flex_r	pro_sup_r	wrist_flex_r	wrist_dev_r	arm_flex_l	arm_add_l	arm_rot_l	elbow_flex_l	pro_sup_l	wrist_flex_l	wrist_dev_l
      2.30000000	     -2.09255963	     -7.35671868	     88.08961383	      0.28325042	      0.90101156	      0.66537666	     -1.47488353	     -1.82342937	     -9.20498294	      7.96722738	      0.13905435	     28.70002692	     14.00199758	      0.00000000	     -1.90322589	      1.98459004	      8.66574524	      3.62697167	      0.06330260	     25.27935463	    -10.74224320	      0.00000000	     -0.20536396	     -0.12110717	     -1.37567391	     -0.38138142	     -0.16107254	     -1.46165353	     -0.33739246	     -0.29445997	     -1.46165353	     -0.23471047	     -0.29445997	     -1.20371467	     -0.19070098	     -0.24696174	     -1.11773505	     -0.11734497	     -0.18759501	     -1.03175543	     -1.46689426	     -1.36998853	     -7.65108557	      0.00000000	      0.00000000	     15.43471778	     -3.01036123	    -11.50747135	     -5.58137097	     -8.68687328	    -43.05811778	    106.39668747	     57.75631247	     30.35714874	    -16.06311997	     -3.52361424	    -22.09859825	     81.12886959	      9.67350589	     17.09888914	    -12.31340797	    -12.56669372
      2.31666667	     -2.29197531	     -7.26225767	     87.91632593	      0.28401311	      0.90130654	      0.66533796	     -1.56983156	     -1.99093719	     -8.81806593	      7.96850125	      0.13907658	     28.62801431	     13.72622034	      0.00000000	     -2.01780522	      2.15756204	      8.50054978	      3.57982237	      0.06247969	     25.21746996	    -10.59248755	      0.00000000	     -0.21214495	     -0.15995594	     -1.44148845	     -0.39397438	     -0.21274140	     -1.53158148	     -0.34853294	     -0.38891688	     -1.53158148	     -0.24246046	     -0.38891688	     -1.26130240	     -0.19699780	     -0.32618216	     -1.17120937	     -0.12121962	     -0.24777175	     -1.08111634	     -1.51533015	     -1.80945360	     -8.01712633	      0.00000000	      0.00000000	     15.48192232	     -2.23817126	    -10.67408500	     -5.42145696	     -8.99628864	    -41.32991247	    104.96114603	     53.38630651	     26.05000289	    -15.24251078	     -3.75874547	    -22.23903787	     80.76457714	      9.56283988	     17.98290006	    -12.61714821	    -11.92100216
      2.33333333	     -2.46418798	     -7.23040702	     87.78101938	      0.28464165	      0.90174011	      0.66529265	     -1.58445624	     -2.13656146	     -8.58059459	      7.97579958	      0.13920396	     28.56701060	     13.59384665	      0.00000000	     -2.04181388	      2.31123680	      8.20810763	      3.56639608	      0.06224535	     25.12953999	    -10.39346564	      0.00000000	     -0.21371974	     -0.19744078	     -1.44833095	     -0.39689893	     -0.26259624	     -1.53885164	     -0.35112016	     -0.48005751	     -1.53885164	     -0.24426029	     -0.48005751	     -1.26728959	     -0.19846015	     -0.40262124	     -1.17676890	     -0.12211946	     -0.30583577	     -1.08624822	     -1.52657873	     -2.23348957	     -8.05518227	      0.00000000	      0.00000000	     15.51689389	     -1.63319162	    -10.50064917	     -5.37707113	     -9.38200429	    -40.22223478	    104.05668458	     50.25369484	     20.40741140	    -12.43147479	     -3.77008009	    -22.39415690	     80.07249297	      9.50485544	     18.56216964	    -12.37689185	    -10.91504766
      2.35000000	     -2.57152968	     -7.35742399	     87.85110800	      0.28474248	      0.90216809	      0.66534652	     -1.47492406	     -2.20944909	     -8.62575557	      7.87819303	      0.13750041	     28.45630134	     13.55436957	      0.00000000	     -1.90003239	      2.39202392	      8.29728932	      3.50615686	      0.06119398	     25.12850742	    -10.31806372	      0.00000000	     -0.20171436	     -0.22400389	     -1.39174065	     -0.37460374	     -0.29792518	     -1.47872444	     -0.33139652	     -0.54464306	     -1.47872444	     -0.23053934	     -0.54464306	     -1.21777307	     -0.18731196	     -0.45678874	     -1.13078928	     -0.11525959	     -0.34698203	     -1.04380549	     -1.44082551	     -2.53397683	     -7.74044396	      0.00000000	      0.00000000	     15.68197743	     -1.34470059	    -10.86393620	     -5.04178667	    -10.05069116	    -40.03556942	    101.95723372	     50.15781246	     19.43213415	    -11.65249691	     -3.43581791	    -22.54890610	     80.02171931	      9.53438837	     18.57450740	    -12.27734864	    -10.63391156
      2.36666667	     -2.66056807	     -7.43249494	     87.62911995	      0.28563430	      0.90263235	      0.66529691	     -1.32549831	     -2.25967574	     -8.23787467	      7.88263133	      0.13757787	     28.48907991	     13.54787219	      0.00000000	     -1.76733069	      2.45081911	      7.49545205	      3.53167472	      0.06163935	     25.35395797	    -10.00402250	      0.00000000	     -0.19760823	     -0.25639775	     -1.30855563	     -0.36697824	     -0.34100901	     -1.39034036	     -0.32465056	     -0.62340549	     -1.39034036	     -0.22584645	     -0.62340549	     -1.14498618	     -0.18349900	     -0.52284629	     -1.06320145	     -0.11291334	     -0.39716012	     -0.98141673	     -1.41149582	     -2.90042264	     -7.27779387	      0.00000000	      0.00000000	     15.84022809	     -0.83907025	    -11.70382101	     -5.51815189	    -10.28468431	    -38.95227017	    103.22268574	     47.35211340	      5.62080949	     -5.11980240	     -3.04449470	    -22.71771609	     79.05474664	      9.41712349	     18.78790924	    -11.08001571	     -8.36020844
      2.38333333	     -2.78512761	     -7.59847463	     87.57077389	      0.28602380	      0.90309460	      0.66544100	     -1.08757059	     -2.35367820	     -8.16518873	      7.84603164	      0.13693909	     28.54425828	     13.62982278	      0.00000000	     -1.53111900	      2.54371803	      6.95056333	      3.51041205	      0.06126825	     25.56818650	     -9.75559744	      0.00000000	     -0.18503818	     -0.28498393	     -1.19193649	     -0.34363440	     -0.37902863	     -1.26643252	     -0.30399922	     -0.69290993	     -1.26643252	     -0.21148014	     -0.69290993	     -1.04294443	     -0.17182645	     -0.58113923	     -0.96844840	     -0.10573082	     -0.44144011	     -0.89395236	     -1.32170921	     -3.22379524	     -6.62919316	      0.00000000	      0.00000000	     16.05448624	     -0.81790242	    -12.74773166	     -5.65312162	    -10.86070659	    -38.13994033	    102.57452383	     47.33410812	     -1.78305792	     -4.02557947	     -2.39028068	    -22.92093740	     78.32483017	      9.51931389	     18.76827149	    -10.19920280	     -6.21608204
      2.40000000	     -2.84015671	     -7.78875495	     87.57126323	      0.28605666	      0.90340132	      0.66571399	     -0.83261167	     -2.39963763	     -8.18856343	      7.77969721	      0.13578133	     28.71172918	     13.85961345	      0.00000000	     -1.23340157	      2.57963991	      6.28162880	      3.54150647	      0.06181095	     25.97369288	     -9.31991792	      0.00000000	     -0.17175551	     -0.29865330	     -1.09272287	     -0.31896716	     -0.39720889	     -1.16101805	     -0.28217713	     -0.72614563	     -1.16101805	     -0.19629937	     -0.72614563	     -0.95613251	     -0.15949217	     -0.60901381	     -0.88783733	     -0.09814110	     -0.46261396	     -0.81954215	     -1.22683245	     -3.37842585	     -6.07739677	      0.00000000	      0.00000000	     16.30242417	     -0.89136380	    -13.78731651	     -5.72274356	    -11.49453930	    -37.00022660	    101.63019258	     46.54531237	     -8.13502242	     -5.08255886	     -1.84571036	    -22.99298115	     77.51526590	      9.58649983	     18.52093175	     -9.44683869	     -4.89290560
      2.41666667	     -2.91350412	     -7.95855681	     87.63281651	      0.28601623	      0.90372159	      0.66639923	     -0.55779262	     -2.47392596	     -8.41716568	      7.75351446	      0.13532436	     28.94407387	     14.20234831	      0.00000000	     -0.90296867	      2.63403863	      5.66170536	      3.63897963	      0.06351218	     26.33152842	     -8.83721385	      0.00000000	     -0.16594744	     -0.31180432	     -1.04928225	     -0.30818098	     -0.41469975	     -1.11486239	     -0.27263504	     -0.75812104	     -1.11486239	     -0.18966132	     -0.75812104	     -0.91812197	     -0.15409879	     -0.63583138	     -0.85254183	     -0.09482236	     -0.48298490	     -0.78696169	     -1.18534594	     -3.52719288	     -5.83579309	      0.00000000	      0.00000000	     16.57510754	     -0.90207518	    -14.36220352	     -5.44759462	    -12.01742318	    -35.62449472	     99.80504451	     44.10168527	     -9.97300742	     -8.33083307	     -1.49360955	    -23.00587011	     76.56388586	      9.63693780	     17.87344010	     -9.08323082	     -4.37341719
      2.43333333	     -2.98913386	     -8.11175165	     87.61552236	      0.28599307	      0.90392123	      0.66727616	     -0.24399138	     -2.57166658	     -8.61321002	      7.82726828	      0.13661160	     29.22638175	     14.57072544	      0.00000000	     -0.60763015	      2.70359069	      5.35169192	      3.74181253	      0.06530695	     26.55334303	     -8.68818316	      0.00000000	     -0.16033496	     -0.31879262	     -1.00685127	     -0.29775805	     -0.42399419	     -1.06977948	     -0.26341430	     -0.77511239	     -1.06977948	     -0.18324682	     -0.77511239	     -0.88099486	     -0.14888704	     -0.65008192	     -0.81806666	     -0.09161539	     -0.49380978	     -0.75513845	     -1.14525656	     -3.60624593	     -5.59980472	      0.00000000	      0.00000000	     16.77166994	     -1.18257207	    -14.76574109	     -4.94668543	    -12.36368246	    -34.58408584	     97.53322609	     42.61516599	     -8.74045958	    -11.63626379	     -1.12978262	    -22.97318567	     75.98813955	      9.66078481	     17.22922083	     -8.72371999	     -3.65435786
      2.45000000	     -2.94798490	     -8.20285925	     87.63713093	      0.28577485	      0.90409017	      0.66831314	     -0.01185025	     -2.56731895	     -9.00831225	      7.91497562	      0.13814238	     29.43564451	     14.99494993	      0.00000000	     -0.37255926	      2.66976466	      5.18026282	      3.90533104	      0.06816089	     26.68733574	     -8.50266570	      0.00000000	     -0.16545231	     -0.30892373	     -1.00638820	     -0.30726148	     -0.41086856	     -1.06928746	     -0.27182160	     -0.75111716	     -1.06928746	     -0.18909544	     -0.75111716	     -0.88058967	     -0.15363901	     -0.62995727	     -0.81769041	     -0.09453945	     -0.47852286	     -0.75479115	     -1.18180930	     -3.49460703	     -5.59722924	      0.00000000	      0.00000000	     17.10584783	     -1.26991661	    -14.63824538	     -4.21008192	    -12.94547179	    -33.36110256	     94.93359599	     41.88759659	     -6.29732731	    -14.69068774	     -1.01179040	    -22.81053940	     75.42684749	      9.60614190	     16.46872589	     -8.60448703	     -4.30151609
      2.46666667	     -2.86384888	     -8.26933062	     87.63397354	      0.28562891	      0.90415764	      0.66923863	      0.16713189	     -2.50680192	     -9.22933622	      8.02477860	      0.14005881	     29.50860108	     15.11201898	      0.00000000	     -0.21454596	      2.59595634	      5.22833657	      4.05994672	      0.07085944	     26.61882065	     -8.42863089	      0.00000000	     -0.16998541	     -0.29528761	     -0.97012694	     -0.31567991	     -0.39273252	     -1.03075988	     -0.27926904	     -0.71796229	     -1.03075988	     -0.19427633	     -0.71796229	     -0.84886108	     -0.15784845	     -0.60215049	     -0.78822814	     -0.09712967	     -0.45740050	     -0.72759521	     -1.21418881	     -3.34035248	     -5.39555503	      0.00000000	      0.00000000	     17.61842451	     -1.26421574	    -14.65018703	     -3.71353369	    -13.43972430	    -32.73297842	     93.02370243	     42.28023008	     -5.81180771	    -14.92852695	     -0.76074060	    -22.75688651	     75.29510128	      9.69064604	     16.26454188	     -8.51662504	     -4.56725591
